<?xml version="1.0" encoding="UTF-8"?>
<!DOCTYPE svg PUBLIC "-//W3C//DTD SVG 1.1//EN" "http://www.w3.org/Graphics/SVG/1.1/DTD/svg11.dtd">
<!-- Creator: CorelDRAW -->
<svg xmlns="http://www.w3.org/2000/svg" xml:space="preserve" width="176.443mm" height="102.251mm" version="1.1" style="shape-rendering:geometricPrecision; text-rendering:geometricPrecision; image-rendering:optimizeQuality; fill-rule:evenodd; clip-rule:evenodd"
viewBox="0 0 17731.69 10275.78"
 xmlns:xlink="http://www.w3.org/1999/xlink"
 xmlns:xodm="http://www.corel.com/coreldraw/odm/2003">
 <defs>
  <style type="text/css">
   <![CDATA[
    .str1 {stroke:#485E66;stroke-width:35.45;stroke-miterlimit:10}
    .str0 {stroke:#363894;stroke-width:20.1;stroke-miterlimit:22.9256}
    .fil2 {fill:none;fill-rule:nonzero}
    .fil0 {fill:#363894;fill-rule:nonzero}
    .fil3 {fill:#385056;fill-rule:nonzero}
    .fil4 {fill:#485E66;fill-rule:nonzero}
    .fil6 {fill:#62797E;fill-rule:nonzero}
    .fil5 {fill:#6D8089;fill-rule:nonzero}
    .fil1 {fill:#B3EFF4;fill-rule:nonzero}
    .fil8 {fill:#F6BC13;fill-rule:nonzero}
    .fil7 {fill:#FFC84D;fill-rule:nonzero}
   ]]>
  </style>
 </defs>
 <g id="OBJECTS">
  <metadata id="CorelCorpID_0Corel-Layer"/>
  <g id="_498922928">
   <polygon class="fil0" points="5463.83,305.69 4357.46,2962.37 4807.97,2962.37 4807.97,2068 6205.87,2068 6205.87,2962.37 6735.86,2962.37 6735.86,4055.52 6205.87,4055.52 6205.87,4956.54 4807.97,4956.54 4807.97,4055.52 2827.04,4055.52 2827.04,3061.74 4019.59,305.69 "/>
   <path class="fil0" d="M10677.87 2631.12c0,1523.8 -669.14,2365.17 -1874.9,2365.17 -1219.05,0 -1881.58,-841.37 -1881.58,-2365.17 0,-1523.77 662.53,-2365.17 1881.58,-2365.17 1205.76,0 1874.9,841.4 1874.9,2365.17zm-2305.57 0l0 0c0,973.89 99.4,1331.64 430.66,1331.64 324.66,0 424,-357.75 424,-1331.64 0,-980.5 -99.34,-1331.65 -424,-1331.65 -331.26,0 -430.66,351.15 -430.66,1331.65z"/>
   <polygon class="fil0 str0" points="13639.38,305.69 12533,2962.37 12983.48,2962.37 12983.48,2068 14381.38,2068 14381.38,2962.37 14911.41,2962.37 14911.41,4055.52 14381.38,4055.52 14381.38,4956.54 12983.48,4956.54 12983.48,4055.52 11002.62,4055.52 11002.62,3061.74 12195.09,305.69 "/>
  </g>
  <path class="fil1" d="M8809.7 9917.15c0,198.07 -427.05,358.63 -953.82,358.63 -526.79,0 -953.82,-160.56 -953.82,-358.63 0,-198.06 427.04,-358.62 953.82,-358.62 526.78,0 953.82,160.56 953.82,358.62z"/>
  <path class="fil1" d="M10883.66 9917.15c0,198.07 -427.05,358.63 -953.82,358.63 -526.79,0 -953.82,-160.56 -953.82,-358.63 0,-198.06 427.04,-358.62 953.82,-358.62 526.78,0 953.82,160.56 953.82,358.62z"/>
  <g id="_498232800">
   <path class="fil2 str1" d="M17728.98 7775.23c0,0 -3963.42,614.97 -4553.8,-1057.75 -569.59,-1613.84 -585.35,-2877.05 -950.25,-3195.96"/>
   <path class="fil2 str1" d="M2.71 7775.23c0,0 3970.17,614.97 4560.54,-1057.75 569.6,-1613.84 585.36,-2877.05 950.26,-3195.96"/>
   <g>
    <polygon class="fil3" points="9849.53,8360.37 9685.64,9456.54 9322.9,9456.54 9158.72,8360.37 "/>
    <polygon class="fil4" points="9686.2,8360.37 9522.3,9456.54 9322.9,9456.54 9158.72,8360.37 "/>
    <polygon class="fil3" points="9638.18,10108.72 10254.99,9953.64 9708.68,9432 9324.5,9432 9324.5,9611.75 "/>
    <polygon class="fil3" points="9792.15,7890.84 9334.84,7964.4 9306.71,7968.95 9103.33,8001.62 9097.09,7976.9 8748.84,6614.59 9016.13,6579.08 9044.24,6575.38 9411.53,6526.81 9569.17,6505.79 "/>
    <polygon class="fil4" points="9631.1,7890.84 9173.77,7964.4 9145.65,7968.95 9097.09,7976.9 8748.84,6614.59 9016.13,6579.08 9044.24,6575.38 9411.53,6526.81 "/>
    <polygon class="fil3" points="9096.43,8135.06 9838.92,8015.52 9810.15,7836.81 9067.65,7956.36 "/>
    <polygon class="fil3" points="9873.97,8188.81 9760.91,8201.02 9126.34,8269.76 9106.73,8089.67 9741.31,8020.93 9854.36,8008.72 "/>
    <polygon class="fil4" points="9760.91,8201.02 9126.34,8269.76 9106.73,8089.67 9741.31,8020.93 "/>
    <polygon class="fil3" points="9128.21,8432.88 9877.75,8371.46 9862.96,8191.06 9113.42,8252.47 "/>
    <polygon class="fil4" points="10254.99,9953.64 10254.99,10087.57 9638.18,10108.72 "/>
    <g>
     <polygon class="fil3" points="9510.37,9612.77 9481.97,9615.32 9358.98,8218.63 9306.71,7968.95 9016.13,6579.08 9044.24,6575.38 9334.84,7964.4 9387.1,8214.37 "/>
    </g>
    <polygon class="fil3" points="8490.35,8360.37 8326.46,9456.54 7963.44,9456.54 7799.54,8360.37 "/>
    <polygon class="fil4" points="8357.7,8360.37 8193.8,9456.54 7963.44,9456.54 7799.54,8360.37 "/>
    <polygon class="fil3" points="8011,10108.72 7394.19,9953.64 7959.45,9427.23 8324.69,9432 8324.69,9611.75 "/>
    <polygon class="fil3" points="8911.03,6614.59 8556.53,8001.62 8422.18,7980.03 8378.15,7972.92 8350.31,7968.38 7867.42,7890.84 8087.57,6523.97 8090.4,6505.79 8640.62,6578.79 8669.03,6582.49 "/>
    <polygon class="fil4" points="8771.28,6614.59 8422.18,7980.03 8378.15,7972.92 8350.31,7968.38 7867.42,7890.84 8087.57,6523.97 8500.87,6578.79 8529.27,6582.49 "/>
    <polygon class="fil3" points="8581.53,7956.45 8552.84,8135.12 7810.33,8015.53 7839.01,7836.86 8360.25,7920.95 8388.09,7925.21 "/>
    <polygon class="fil3" points="8542.33,8089.67 8523.02,8269.76 8396.61,8256.13 7775.39,8188.81 7794.71,8008.72 8415.93,8076.04 "/>
    <polygon class="fil4" points="8415.93,8076.04 8396.61,8256.13 7775.39,8188.81 7794.71,8008.72 "/>
    <polygon class="fil3" points="8520.98,8432.88 7771.43,8371.46 7786.21,8191.06 8535.76,8252.47 "/>
    <polygon class="fil4" points="7394.19,9953.64 7394.19,10086.39 8011,10108.72 "/>
    <g>
     <polygon class="fil3" points="8285.84,8360.37 8314.25,8360.37 8217.66,9456.54 8189.26,9456.54 "/>
     <polygon class="fil3" points="8669.03,6582.49 8388.09,7925.21 8360.25,7920.95 8640.62,6578.79 "/>
    </g>
    <polygon class="fil5" points="8828.66,781.74 8784.27,781.74 8784.27,92.92 8828.66,92.92 "/>
    <path class="fil4" d="M9020.39 978.21l-399.44 0 0 -36.39c0,-110.31 89.41,-199.72 199.72,-199.72 110.29,0 199.71,89.41 199.71,199.72l0 36.39z"/>
    <polygon class="fil4" points="10728.56,4187.92 10928.15,4475.83 11939.18,3774.92 11739.57,3487.01 "/>
    <polygon class="fil4" points="9552.82,4290.7 10690.56,4567.34 10792.19,4196.17 9487.23,3644.16 "/>
    <path class="fil5" d="M10548.87 4370.87c0,113.73 92.2,205.94 205.95,205.94 113.73,0 205.94,-92.2 205.94,-205.94 0,-113.74 -92.2,-205.94 -205.94,-205.94 -113.74,0 -205.95,92.19 -205.95,205.94z"/>
    <path class="fil4" d="M10632.91 4370.87c0,67.32 54.58,121.9 121.91,121.9 67.32,0 121.9,-54.58 121.9,-121.9 0,-67.33 -54.58,-121.91 -121.9,-121.91 -67.33,0 -121.91,54.58 -121.91,121.91z"/>
    <path class="fil5" d="M11923.39 3046.23l-124.48 131.69c-141.23,149.41 -134.59,385.11 14.8,526.33 149.41,141.23 385.11,134.59 526.33,-14.81l124.48 -131.69 -141.96 -134.19 -119.87 126.82c-67.22,71.11 -179.07,74.26 -250.18,7.04 -71.11,-67.22 -74.51,-179.32 -7.3,-250.42l119.87 -126.82 -141.7 -133.95z"/>
    <polygon class="fil4" points="6891.4,4187.92 6691.81,4475.83 5680.78,3774.92 5880.39,3487.01 "/>
    <polygon class="fil4" points="8067.14,4290.7 6929.4,4567.34 6827.77,4196.17 8132.73,3659.84 "/>
    <path class="fil6" d="M9517.48 1159.94l0 1696.64c0,185.2 -150.26,335.46 -335.46,335.46l-713.82 0c-185.2,0 -335.46,-150.26 -335.46,-335.46l0 -1615.98c0,-170.72 128.11,-314.16 297.69,-333.19l596.78 -67.32 117.32 -13.36c198.83,-22.43 372.96,133.23 372.96,333.2z"/>
    <path class="fil5" d="M9261.83 1159.94l0 1696.64c0,185.2 -150.26,335.46 -335.46,335.46l-458.17 0c-185.2,0 -335.46,-150.26 -335.46,-335.46l0 -1615.98c0,-170.72 128.11,-314.16 297.69,-333.19l596.78 -67.32c134.93,42.32 234.63,168.16 234.63,319.85z"/>
    <path class="fil4" d="M9072.46 3364.85l-530.22 0c-18.3,0 -33.14,-14.84 -33.14,-33.14l0 -108.89c0,-18.3 14.84,-33.13 33.14,-33.13l530.22 0c18.3,0 33.13,14.83 33.13,33.13l0 108.89c0,18.3 -14.83,33.14 -33.13,33.14z"/>
    <path class="fil3" d="M9034.54 3528.18l-454.37 0c-17.02,0 -30.82,-13.81 -30.82,-30.83l0 -113.52c0,-17.02 13.8,-30.82 30.82,-30.82l454.37 0c17.02,0 30.82,13.8 30.82,30.82l0 113.52c0,17.02 -13.8,30.83 -30.82,30.83z"/>
    <path class="fil4" d="M9062.4 3687.95l-510.1 0c-17.98,0 -32.55,-14.56 -32.55,-32.54l0 -110.07c0,-17.98 14.57,-32.55 32.55,-32.55l510.1 0c17.98,0 32.55,14.57 32.55,32.55l0 110.07c0,17.98 -14.57,32.54 -32.55,32.54z"/>
    <path class="fil6" d="M9787.89 4067.78l-67.88 1437.02 -1.42 28.39 -39.78 840.23 -11.07 237.75 -17.61 370.69 -1635.85 0 -17.61 -370.69 -11.08 -237.75 -46.58 -984.8 -1.42 -28.4 -61.08 -1292.44c-11.36,-236.62 157.66,-435.46 370.12,-435.46l1171.14 0c212.47,0 381.48,198.84 370.11,435.46z"/>
    <path class="fil5" d="M9432.83 4067.78l-67.88 1437.02 -1.43 28.39 -39.77 840.23 -11.07 237.75 -17.62 370.69 -1280.78 0 -17.61 -370.69 -11.08 -237.75 -46.58 -984.8 -1.42 -28.4 -61.08 -1292.44c-11.36,-236.62 157.66,-435.46 370.12,-435.46l816.07 0c212.48,0 381.48,198.84 370.12,435.46z"/>
    <path class="fil5" d="M7071.09 4370.87c0,113.73 -92.2,205.94 -205.95,205.94 -113.73,0 -205.94,-92.2 -205.94,-205.94 0,-113.74 92.2,-205.94 205.94,-205.94 113.74,0 205.95,92.19 205.95,205.94z"/>
    <path class="fil4" d="M6969.89 4370.87c0,57.85 -46.89,104.75 -104.75,104.75 -57.85,0 -104.75,-46.9 -104.75,-104.75 0,-57.86 46.9,-104.75 104.75,-104.75 57.86,0 104.75,46.89 104.75,104.75z"/>
    <path class="fil5" d="M5696.57 3046.23l124.48 131.69c141.23,149.41 134.59,385.11 -14.8,526.33 -149.41,141.23 -385.11,134.59 -526.33,-14.81l-124.48 -131.69 141.96 -134.19 119.87 126.82c67.22,71.11 179.08,74.26 250.18,7.04 71.11,-67.22 74.52,-179.32 7.3,-250.42l-119.87 -126.82 141.7 -133.95z"/>
    <path class="fil7" d="M8870.68 65.69c0,36.28 -29.42,65.68 -65.69,65.68 -36.28,0 -65.68,-29.4 -65.68,-65.68 0,-36.28 29.4,-65.69 65.68,-65.69 36.28,0 65.69,29.42 65.69,65.69z"/>
    <path class="fil4" d="M9272.48 2588.43c-307.73,-191.74 -615.43,191.75 -923.16,0 0,-31.95 0,-63.91 0,-95.86 307.73,191.74 615.43,-191.74 923.16,0 0,31.96 0,63.92 0,95.86z"/>
    <g>
     <path class="fil6" d="M8826.29 1871.2c0,180.41 -146.25,326.66 -326.66,326.66 -180.41,0 -326.66,-146.25 -326.66,-326.66 0,-180.41 146.25,-326.66 326.66,-326.66 180.41,0 326.66,146.25 326.66,326.66z"/>
     <path class="fil6" d="M9458.3 1871.2c0,180.41 -146.25,326.66 -326.66,326.66 -180.41,0 -326.65,-146.25 -326.65,-326.66 0,-180.41 146.24,-326.66 326.65,-326.66 180.41,0 326.66,146.25 326.66,326.66z"/>
     <polygon class="fil6" points="9145.54,2197.42 8496.68,2197.42 8496.68,1544.54 9145.54,1544.54 "/>
    </g>
    <polygon class="fil8" points="8580.12,2045.18 8430.99,2045.18 8430.99,1700.76 8580.12,1700.76 "/>
    <polygon class="fil7" points="8564.14,2018.55 8446.96,2018.55 8446.96,1727.41 8564.14,1727.41 "/>
    <polygon class="fil8" points="9229.88,2045.18 9080.74,2045.18 9080.74,1700.76 9229.88,1700.76 "/>
    <g>
     <polygon class="fil4" points="8287.51,1647.13 8242.8,1587.15 8609.96,1289.28 8684.4,1418.49 "/>
     <polygon class="fil4" points="9373.49,1647.13 9418.2,1587.15 9051.03,1289.28 8976.59,1418.49 "/>
    </g>
    <polygon class="fil6" points="9444.1,4960.27 8199.01,4960.27 8199.01,4179.13 9444.1,4179.13 "/>
    <polygon class="fil4" points="9323.36,4884.53 8319.74,4884.53 8319.74,4254.88 9323.36,4254.88 "/>
    <polygon class="fil7" points="9232.18,4421.14 8410.92,4421.14 8410.92,4381.46 9232.18,4381.46 "/>
    <polygon class="fil7" points="9103.67,4530.45 8539.44,4530.45 8539.44,4490.78 9103.67,4490.78 "/>
    <polygon class="fil7" points="9165.71,4627.94 8477.39,4627.94 8477.39,4588.27 9165.71,4588.27 "/>
    <g>
     <polygon class="fil4" points="9720.01,5504.81 9718.59,5533.2 9036.86,5533.2 9036.86,5187.51 8433.26,5187.51 8433.26,5388.62 7939.01,5388.62 7937.59,5360.22 8404.85,5360.22 8404.85,5159.11 9065.27,5159.11 9065.27,5504.81 "/>
    </g>
    <path class="fil4" d="M8471.23 5367.42c0,28.76 -23.31,52.08 -52.08,52.08 -28.76,0 -52.08,-23.31 -52.08,-52.08 0,-28.76 23.31,-52.08 52.08,-52.08 28.76,0 52.08,23.31 52.08,52.08z"/>
    <path class="fil4" d="M8454.66 5168.58c0,19.61 -15.9,35.51 -35.51,35.51 -19.62,0 -35.51,-15.9 -35.51,-35.51 0,-19.61 15.89,-35.51 35.51,-35.51 19.61,0 35.51,15.9 35.51,35.51z"/>
    <path class="fil4" d="M9086.66 5168.58c0,19.61 -15.9,35.51 -35.51,35.51 -19.62,0 -35.51,-15.9 -35.51,-35.51 0,-19.61 15.89,-35.51 35.51,-35.51 19.61,0 35.51,15.9 35.51,35.51z"/>
    <path class="fil4" d="M9086.66 5509.44c0,19.61 -15.9,35.49 -35.51,35.49 -19.62,0 -35.51,-15.89 -35.51,-35.49 0,-19.61 15.89,-35.51 35.51,-35.51 19.61,0 35.51,15.9 35.51,35.51z"/>
    <polygon class="fil7" points="9212.72,2018.55 9095.54,2018.55 9095.54,1727.41 9212.72,1727.41 "/>
    <polygon class="fil3" points="9695.01,7129.72 7962.3,7129.72 7962.3,6607.77 9695.01,6607.77 "/>
    <polygon class="fil4" points="9106.41,7129.72 7962.3,7129.72 7962.3,6607.77 9106.41,6607.77 "/>
    <polygon class="fil6" points="9678.81,6373.43 9667.74,6611.18 7996.67,6611.18 7985.59,6373.43 "/>
   </g>
   <path class="fil2 str1" d="M5513.52 3521.51c13.32,-11.64 27.09,-22.01 41.38,-31.1 405.88,-258.29 396.66,728.74 396.66,728.74"/>
   <g>
    <g>
     <polygon class="fil4" points="5908.62,4521.26 5867.1,4521.26 5867.1,4367.89 5908.62,4367.89 "/>
     <g>
      <polygon class="fil4" points="6050.44,4521.26 6008.93,4521.26 6008.93,4367.89 6050.44,4367.89 "/>
     </g>
    </g>
    <path class="fil4" d="M6111.15 4306.78l0 110.7 -304.41 0 0 -110.7c0,-84.12 67.89,-152.39 152.03,-152.39 42.06,0 80.06,16.97 107.74,44.65 3.69,3.69 7.38,7.75 10.7,11.81 21.4,26.2 33.94,59.77 33.94,95.93z"/>
    <path class="fil5" d="M6111.15 4306.78l0 110.7 -260.87 0 0 -73.79c0,-84.13 68.26,-152.39 152.39,-152.39 26.93,0 52.39,7.01 74.54,19.56 21.4,26.2 33.94,59.77 33.94,95.93z"/>
   </g>
   <path class="fil2 str1" d="M12224.92 3521.51c-13.32,-11.64 -27.1,-22.01 -41.38,-31.1 -405.89,-258.29 -396.67,728.74 -396.67,728.74"/>
   <g>
    <path class="fil4" d="M11627.29 4306.78l0 110.7 304.41 0 0 -110.7c0,-84.12 -67.88,-152.39 -152.02,-152.39 -42.07,0 -80.06,16.97 -107.74,44.65 -3.69,3.69 -7.38,7.75 -10.7,11.81 -21.4,26.2 -33.95,59.77 -33.95,95.93z"/>
    <path class="fil5" d="M11627.29 4306.78l0 110.7 260.88 0 0 -73.79c0,-84.13 -68.27,-152.39 -152.39,-152.39 -26.93,0 -52.4,7.01 -74.54,19.56 -21.4,26.2 -33.95,59.77 -33.95,95.93z"/>
   </g>
  </g>
  <polygon class="fil7" points="5817.05,5049.64 5780.05,5052.17 5773.06,4970.85 5735.8,5091.27 5772.79,5088.74 5779.78,5170.05 "/>
  <polygon class="fil7" points="6473.38,4678.55 6436.94,4721.28 6341.49,4642.73 6432.4,4810.61 6468.84,4767.87 6564.29,4846.43 "/>
  <polygon class="fil7" points="6316.76,5081.67 6255.57,5115.65 6178.43,4982.27 6211.28,5217.94 6272.47,5183.97 6349.61,5317.34 "/>
  <polygon class="fil7" points="11441.02,4614.31 11409.56,4594.69 11451.5,4524.69 11350.8,4600.47 11382.26,4620.08 11340.31,4690.08 "/>
  <polygon class="fil7" points="12190.36,4697.87 12135.8,4711.16 12104.43,4591.58 12079.81,4780.91 12134.37,4767.61 12165.74,4887.19 "/>
  <polygon class="fil7" points="11827.33,4932.92 11757.83,4924.62 11773.41,4771.33 11662.02,4981.6 11731.52,4989.89 11715.95,5143.17 "/>
 </g>
</svg>
